<?xml version="1.0" encoding="utf-8"?>
<!-- Generator: Adobe Illustrator 23.1.0, SVG Export Plug-In . SVG Version: 6.00 Build 0)  -->
<svg version="1.1" id="图层_1" xmlns="http://www.w3.org/2000/svg" xmlns:xlink="http://www.w3.org/1999/xlink" x="0px" y="0px"
	 viewBox="0 0 124 200" style="enable-background:new 0 0 124 200;" xml:space="preserve">
<path d="M17.4,197.7c2.8,0,5.3-1.1,7.3-3l89.1-87.2c2.1-2.1,3.3-4.7,3.3-7.5c0-2.9-1.1-5.6-3.3-7.5L24.7,5.4c-1.9-2-4.5-3.2-7.3-3.1
	C11.7,2.2,7.1,6.7,7,12.3c0,0.1,0,0.2,0,0.3c0,2.7,1.2,5.4,3,7.3L91.8,100L10,180.1c-1.8,1.9-3,4.5-3,7.3
	C7,193.2,11.5,197.7,17.4,197.7L17.4,197.7z"/>
</svg>
