<?xml version="1.0" encoding="utf-8"?>
<!-- Generator: Adobe Illustrator 23.1.0, SVG Export Plug-In . SVG Version: 6.00 Build 0)  -->
<svg version="1.1" id="图层_1" xmlns="http://www.w3.org/2000/svg" xmlns:xlink="http://www.w3.org/1999/xlink" x="0px" y="0px"
	 viewBox="0 0 124 200" style="enable-background:new 0 0 124 200;" xml:space="preserve">
<path d="M99.3,196.9c2,2,4.5,3.1,7.5,3.1c6,0,10.5-4.5,10.5-10.5c0-2.9-1.1-5.5-3-7.5l-83.8-82l83.8-82c1.8-2,3-4.7,3-7.5
	c0-6-4.5-10.6-10.5-10.6c-3,0-5.5,1.2-7.5,3.1L8.2,92.3c-2.2,1.8-3.5,4.7-3.5,7.7c0,2.9,1.3,5.5,3.5,7.7L99.3,196.9z"/>
</svg>
