<?xml version="1.0" standalone="no"?><!DOCTYPE svg PUBLIC "-//W3C//DTD SVG 1.1//EN" "http://www.w3.org/Graphics/SVG/1.1/DTD/svg11.dtd"><svg t="1621925220547" class="icon" viewBox="0 0 1024 1024" version="1.1" xmlns="http://www.w3.org/2000/svg" p-id="16121" xmlns:xlink="http://www.w3.org/1999/xlink" width="200" height="200"><defs><style type="text/css"></style></defs><path d="M375.936 774.491429h330.843429v170.148571c0 21.430857 13.714286 36.004571 34.724571 36.004571 20.571429 0 34.285714-14.573714 34.285714-36.004571v-170.148571h172.288c20.553143 0 33.846857-11.995429 33.846857-32.128 0-20.150857-13.293714-32.146286-33.846857-32.146286h-172.288V375.497143c0-85.705143-41.142857-125.988571-127.725714-125.988572H317.220571V79.36c0-21.430857-13.714286-36.004571-34.285714-36.004571-21.010286 0-34.724571 14.573714-34.724571 36.004571v170.148571H76.361143c-21.010286 0-34.285714 12.434286-34.285714 32.128 0 20.571429 13.275429 32.146286 34.285714 32.146286h171.849143v334.72c0 85.705143 41.142857 125.988571 127.725714 125.988572z m5.558857-64.274286c-44.141714 0-64.274286-23.588571-64.274286-65.152V313.782857h325.284572c44.141714 0 64.274286 24.009143 64.274286 65.572572V710.217143z" p-id="16122"></path></svg>