<?xml version="1.0" encoding="utf-8"?>
<!-- Generator: Adobe Illustrator 23.1.0, SVG Export Plug-In . SVG Version: 6.00 Build 0)  -->
<svg version="1.1" id="图层_1" xmlns="http://www.w3.org/2000/svg" xmlns:xlink="http://www.w3.org/1999/xlink" x="0px" y="0px"
	 viewBox="0 0 200 200" style="enable-background:new 0 0 200 200;" xml:space="preserve">
<path d="M187.4,0L187.4,0h-130C50.6,0,45,5.6,45,12.5v25H12.6C5.7,37.5,0.1,43.1,0.1,50v137.4c0,6.9,5.6,12.5,12.5,12.5H150
	c6.9,0,12.5-5.6,12.5-12.5v-32.6h25c6.9,0,12.5-5.6,12.5-12.5V12.5C199.9,5.6,194.3,0,187.4,0z M150,142.3v45.1H12.6V50H150V142.3z
	 M186.9,142.3h-24.5V50c0-6.9-5.6-12.5-12.5-12.5H57.5v-25h130L186.9,142.3z"/>
</svg>
